<svg xmlns="http://www.w3.org/2000/svg" version="1.1" xmlns:xlink="http://www.w3.org/1999/xlink" xmlns:svgjs="http://svgjs.com/svgjs" width="1440" height="720" preserveAspectRatio="none" viewBox="0 0 1440 720"><g mask="url(&quot;#SvgjsMask2191&quot;)" fill="none"><circle r="60" cx="494.31" cy="445.81" fill="rgba(107, 38, 253, 1)"></circle><rect width="396" height="396" clip-path="url(&quot;#SvgjsClipPath2192&quot;)" x="996.86" y="-184.44" fill="url(#SvgjsPattern2193)" transform="rotate(354.96, 1194.86, 13.56)"></rect><path d="M449.47 479.66a5.6 5.6 0 1 0 3.62 10.6 5.6 5.6 0 1 0-3.62-10.6zM454.64 494.8a5.6 5.6 0 1 0 3.63 10.6 5.6 5.6 0 1 0-3.63-10.6zM459.82 509.94a5.6 5.6 0 1 0 3.63 10.6 5.6 5.6 0 1 0-3.63-10.6zM465 525.08a5.6 5.6 0 1 0 3.62 10.59 5.6 5.6 0 1 0-3.62-10.59zM423.97 454.56a5.6 5.6 0 1 0 3.63 10.6 5.6 5.6 0 1 0-3.63-10.6zM429.15 469.7a5.6 5.6 0 1 0 3.62 10.6 5.6 5.6 0 1 0-3.62-10.6zM434.33 484.84a5.6 5.6 0 1 0 3.62 10.59 5.6 5.6 0 1 0-3.62-10.59zM439.5 499.98a5.6 5.6 0 1 0 3.63 10.59 5.6 5.6 0 1 0-3.63-10.59zM398.48 429.46a5.6 5.6 0 1 0 3.62 10.6 5.6 5.6 0 1 0-3.62-10.6zM403.66 444.6a5.6 5.6 0 1 0 3.62 10.59 5.6 5.6 0 1 0-3.62-10.59zM408.83 459.74a5.6 5.6 0 1 0 3.63 10.59 5.6 5.6 0 1 0-3.63-10.59zM414.01 474.88a5.6 5.6 0 1 0 3.62 10.59 5.6 5.6 0 1 0-3.62-10.59z" stroke="rgba(43, 255, 131, 1)" stroke-width="1" stroke-dasharray="3, 2"></path><path d="M774.81 341.57L784.26 350.21 777.9 361.33 787.36 369.97 781 381.09 790.45 389.73 784.1 400.84M766.9 342.81L776.35 351.45 770 362.57 779.45 371.21 773.1 382.33 782.55 390.97 776.2 402.08" stroke="rgba(43, 255, 131, 1)" stroke-width="1.2" stroke-dasharray="2, 2"></path><circle r="94.50227584437107" cx="668.44" cy="414.56" stroke="rgba(54, 0, 131, 1)" stroke-width="1" stroke-dasharray="2, 2"></circle><path d="M1201.09 782.13 L1164.66 633.15L1076.0537630946683 814.4612369053316z" fill="rgba(43, 255, 131, 1)"></path><rect width="312" height="312" clip-path="url(&quot;#SvgjsClipPath2194&quot;)" x="248.5" y="277.21" fill="url(#SvgjsPattern2195)" transform="rotate(77.56, 404.5, 433.21)"></rect><rect width="444" height="444" clip-path="url(&quot;#SvgjsClipPath2196&quot;)" x="-161.96" y="-95.53" fill="url(#SvgjsPattern2197)" transform="rotate(310.73, 60.04, 126.47)"></rect><path d="M1031.51 79.35a5.6 5.6 0 1 0-8.93-6.77 5.6 5.6 0 1 0 8.93 6.77zM1018.75 69.69a5.6 5.6 0 1 0-8.92-6.76 5.6 5.6 0 1 0 8.92 6.76zM1006 60.03a5.6 5.6 0 1 0-8.93-6.76 5.6 5.6 0 1 0 8.93 6.76zM993.24 50.37a5.6 5.6 0 1 0-8.93-6.76 5.6 5.6 0 1 0 8.93 6.76zM1066.68 85.9a5.6 5.6 0 1 0-8.93-6.76 5.6 5.6 0 1 0 8.93 6.76zM1053.93 76.25a5.6 5.6 0 1 0-8.93-6.76 5.6 5.6 0 1 0 8.93 6.76zM1041.17 66.59a5.6 5.6 0 1 0-8.93-6.76 5.6 5.6 0 1 0 8.93 6.76zM1028.41 56.93a5.6 5.6 0 1 0-8.93-6.76 5.6 5.6 0 1 0 8.93 6.76z" fill="rgba(107, 38, 253, 1)"></path></g><defs><mask id="SvgjsMask2191"><rect width="1440" height="720" fill="#ffffff"></rect></mask><pattern x="0" y="0" width="6" height="6" patternUnits="userSpaceOnUse" id="SvgjsPattern2193"><path d="M0 6L3 0L6 6" stroke="rgba(54, 0, 131, 1)" fill="none"></path></pattern><clipPath id="SvgjsClipPath2192"><circle r="99" cx="1194.86" cy="13.56"></circle></clipPath><pattern x="0" y="0" width="6" height="6" patternUnits="userSpaceOnUse" id="SvgjsPattern2195"><path d="M0 6L3 0L6 6" stroke="rgba(54, 0, 131, 1)" fill="none"></path></pattern><clipPath id="SvgjsClipPath2194"><circle r="78" cx="404.5" cy="433.21"></circle></clipPath><pattern x="0" y="0" width="6" height="6" patternUnits="userSpaceOnUse" id="SvgjsPattern2197"><path d="M3 1L3 5M1 3L5 3" stroke="rgba(43, 255, 131, 1)" fill="none" stroke-width="1"></path></pattern><clipPath id="SvgjsClipPath2196"><circle r="111" cx="60.04" cy="126.47"></circle></clipPath></defs></svg>