<svg xmlns="http://www.w3.org/2000/svg" version="1.1" xmlns:xlink="http://www.w3.org/1999/xlink" xmlns:svgjs="http://svgjs.com/svgjs" width="1920" height="960" preserveAspectRatio="none" viewBox="0 0 1920 960"><g mask="url(&quot;#SvgjsMask1800&quot;)" fill="none"><rect width="1920" height="960" x="0" y="0" fill="rgba(23, 0, 85, 1)"></rect><path d="M2016 960L0 960 L0 546.62Q139.14 525.76, 160 664.9Q222.94 567.84, 320 630.78Q383.2 533.98, 480 597.18Q562.08 583.26, 576 665.34Q636.28 565.63, 736 625.91Q792.13 522.03, 896 578.16Q1008.29 530.45, 1056 642.74Q1065.86 556.6, 1152 566.46Q1216.69 471.15, 1312 535.85Q1389.36 517.21, 1408 594.57Q1479.29 505.86, 1568 577.15Q1596.97 510.13, 1664 539.1Q1738.92 454.02, 1824 528.94Q1882.57 491.51, 1920 550.08Q2023.1 557.17, 2016 660.27z" fill="rgba(6, 6, 161, 1)"></path><path d="M2080 960L0 960 L0 727.05Q67.03 698.08, 96 765.1Q122.97 632.07, 256 659.03Q311.39 618.42, 352 673.81Q453.95 615.76, 512 717.71Q527.36 637.07, 608 652.42Q663.81 612.23, 704 668.04Q823.27 627.31, 864 746.58Q880.43 667.01, 960 683.44Q1033.02 596.46, 1120 669.48Q1188.45 641.93, 1216 710.39Q1291.85 690.24, 1312 766.09Q1324.38 682.47, 1408 694.85Q1446.66 637.51, 1504 676.17Q1633.84 646.01, 1664 775.85Q1707.74 659.59, 1824 703.33Q1882.86 666.19, 1920 725.05Q2024.25 669.3, 2080 773.56z" fill="rgba(62, 0, 255, 1)"></path><path d="M2080 960L0 960 L0 837.12Q77.03 818.15, 96 895.19Q126.93 830.12, 192 861.05Q252.18 761.23, 352 821.42Q381.95 755.37, 448 785.32Q515.49 692.81, 608 760.29Q738.46 730.75, 768 861.21Q855.45 788.66, 928 876.11Q965.77 753.88, 1088 791.65Q1182.9 726.55, 1248 821.45Q1361.7 775.15, 1408 888.85Q1434.56 755.41, 1568 781.97Q1624.45 742.42, 1664 798.87Q1723.27 698.14, 1824 757.41Q1900.23 737.64, 1920 813.87Q2034.28 768.15, 2080 882.43z" fill="rgba(90, 90, 255, 1)"></path><path d="M2080 960L0 960 L0 927.58Q31.66 863.24, 96 894.9Q209.69 848.59, 256 962.28Q318.14 928.42, 352 990.57Q369.06 847.63, 512 864.69Q566.12 822.81, 608 876.92Q739.51 848.43, 768 979.95Q857.13 909.08, 928 998.21Q942.87 853.08, 1088 867.94Q1128.75 812.69, 1184 853.44Q1286.94 796.38, 1344 899.33Q1456.8 852.13, 1504 964.94Q1591.28 892.22, 1664 979.49Q1695.8 915.29, 1760 947.09Q1861.27 888.36, 1920 989.63Q1952.63 862.25, 2080 894.88z" fill="white"></path></g><defs><mask id="SvgjsMask1800"><rect width="1920" height="960" fill="#ffffff"></rect></mask></defs></svg>