<svg xmlns="http://www.w3.org/2000/svg" version="1.1" xmlns:xlink="http://www.w3.org/1999/xlink" xmlns:svgjs="http://svgjs.com/svgjs" width="1440" height="560" preserveAspectRatio="none" viewBox="0 0 1440 560"><g mask="url(&quot;#SvgjsMask1051&quot;)" fill="none"><path d="M1070.82 106.29a25.87 25.87 0 1 0-51.53 4.68z" fill="rgba(4, 9, 148, 1)"></path><path d="M1047.49 205.66L1060.21 205.66L1060.21 218.38L1047.49 218.38z" fill="rgba(61, 99, 255, 1)"></path><path d="M152.81 103.8L167.41 103.8L167.41 133L152.81 133z" stroke="rgba(4, 9, 148, 1)"></path><path d="M1405.86 131.78L1410.66 131.78L1410.66 139.67L1405.86 139.67z" fill="rgba(39, 44, 100, 1)"></path><path d="M666.82 466.51a50.62 50.62 0 1 0 99.4 19.18z" stroke="rgba(114, 165, 255, 1)"></path><path d="M1168.16 434.54L1223.81 434.54L1223.81 471.04L1168.16 471.04z" stroke="rgba(114, 165, 255, 1)"></path><path d="M14.35 110.44 a19.5 19.5 0 1 0 39 0 a19.5 19.5 0 1 0 -39 0z" fill="rgba(114, 165, 255, 1)"></path><path d="M633.58 78.56L686.79 78.56L686.79 131.77L633.58 131.77z" stroke="rgba(4, 9, 148, 1)"></path><path d="M2.02 324L54.07 324L54.07 364.74L2.02 364.74z" stroke="rgba(61, 99, 255, 1)"></path><path d="M1381.5 297.12 a34.4 34.4 0 1 0 68.8 0 a34.4 34.4 0 1 0 -68.8 0z" stroke="rgba(39, 44, 100, 1)"></path><path d="M66.18 107.76L80.71 107.76L80.71 123.52L66.18 123.52z" fill="rgba(61, 99, 255, 1)"></path><path d="M21.56 406.34L75.32 406.34L75.32 450.95L21.56 450.95z" fill="rgba(114, 165, 255, 1)"></path><path d="M254.45 452.55a1.96 1.96 0 1 0 2.68-2.86z" stroke="rgba(61, 99, 255, 1)"></path><path d="M306.24 73.79 a10.94 10.94 0 1 0 21.88 0 a10.94 10.94 0 1 0 -21.88 0z" fill="rgba(114, 165, 255, 1)"></path><path d="M1116.57 437.47 a13.72 13.72 0 1 0 27.44 0 a13.72 13.72 0 1 0 -27.44 0z" stroke="rgba(4, 9, 148, 1)"></path><path d="M1180.1 543.57a19.76 19.76 0 1 0 39.18 5.22z" stroke="rgba(39, 44, 100, 1)"></path><path d="M436.76 366.04a47.13 47.13 0 1 0-20.02 92.11z" stroke="rgba(114, 165, 255, 1)"></path><path d="M1317.98 333.69L1328.51 333.69L1328.51 344L1317.98 344z" fill="rgba(114, 165, 255, 1)"></path><path d="M934.98 19.17a32.72 32.72 0 1 0-5.25 65.23z" fill="rgba(39, 44, 100, 1)"></path><path d="M905.82 331.69L935.23 331.69L935.23 341.56L905.82 341.56z" stroke="rgba(4, 9, 148, 1)"></path><path d="M224.01 316.34 a44.57 44.57 0 1 0 89.14 0 a44.57 44.57 0 1 0 -89.14 0z" fill="rgba(4, 9, 148, 1)"></path><path d="M1382.3 340.43L1431.46 340.43L1431.46 389.59L1382.3 389.59z" stroke="rgba(4, 9, 148, 1)"></path><path d="M1041.08 44.93L1048.67 44.93L1048.67 95.72L1041.08 95.72z" stroke="rgba(114, 165, 255, 1)"></path><path d="M1428.33 223.14L1450.5 223.14L1450.5 245.31L1428.33 245.31z" stroke="rgba(39, 44, 100, 1)"></path><path d="M311.36 280.32L356.47 280.32L356.47 287.45L311.36 287.45z" fill="rgba(114, 165, 255, 1)"></path><path d="M1004.24 318.04a8.85 8.85 0 1 0-6.82-16.33z" stroke="rgba(4, 9, 148, 1)"></path><path d="M203.39 449.35L210.08 449.35L210.08 456.04L203.39 456.04z" stroke="rgba(39, 44, 100, 1)"></path><path d="M1155.48 275.99L1199.24 275.99L1199.24 319.75L1155.48 319.75z" fill="rgba(114, 165, 255, 1)"></path><path d="M1013.57 359.69 a6.12 6.12 0 1 0 12.24 0 a6.12 6.12 0 1 0 -12.24 0z" fill="rgba(39, 44, 100, 1)"></path><path d="M1353.85 519.96L1355.54 519.96L1355.54 529.17L1353.85 529.17z" fill="rgba(61, 99, 255, 1)"></path><path d="M778.6 268.36L809.23 268.36L809.23 298.99L778.6 298.99z" fill="rgba(39, 44, 100, 1)"></path><path d="M547.98 556.35L572.23 556.35L572.23 580.6L547.98 580.6z" fill="rgba(4, 9, 148, 1)"></path><path d="M380.3 95.59a54.39 54.39 0 1 0 27.73 105.19z" stroke="rgba(61, 99, 255, 1)"></path></g><defs><mask id="SvgjsMask1051"><rect width="1440" height="560" fill="#ffffff"></rect></mask></defs></svg>