<?xml version="1.0" encoding="utf-8"?>
<!-- Generator: Adobe Illustrator 19.2.0, SVG Export Plug-In . SVG Version: 6.00 Build 0)  -->
<svg version="1.1" id="Layer_1" xmlns="http://www.w3.org/2000/svg" xmlns:xlink="http://www.w3.org/1999/xlink" x="0px" y="0px"
	 viewBox="0 0 192.1 53.9" style="enable-background:new 0 0 192.1 53.9;" xml:space="preserve">
<style type="text/css">
	.st0{fill:#262626;}
	.st1{fill:#F26768;}
</style>
<path class="st0" d="M102.6,27.3c0,7.3-5,12.3-12.8,12.3h-9.2V14.9h9.2C97.6,14.9,102.6,20,102.6,27.3z M85.4,19.4v15.7h4.4
	c4.9,0,7.7-2.9,7.7-7.8s-2.8-7.8-7.7-7.8L85.4,19.4L85.4,19.4z M118.3,24.1l0.4-2.4h3.9v17.9h-3.9l-0.4-2.4c-1,1.4-2.6,2.8-5.7,2.8
	c-4.8,0-8.3-4.1-8.3-9.3c0-5.3,3.5-9.3,8.3-9.3C115.7,21.3,117.3,22.7,118.3,24.1z M109.1,30.6c0,3.1,2,5,4.5,5
	c2.3,0,4.5-1.7,4.5-4.9v-0.2c0-3.2-2.3-4.9-4.5-4.9C111.1,25.6,109.1,27.6,109.1,30.6z M136.4,26.1c-1.4,0-2.5,0.2-3.6,1.1
	c-0.8,0.7-1.4,1.7-1.4,3.3v9.1h-4.6V21.7h3.9l0.4,2.9c0.6-1.6,2.2-3,5.2-3v4.5H136.4z M143.6,23.7c1-1.3,2.8-2.3,5.4-2.3
	c4.8,0,8.3,4.1,8.3,9.3c0,5.3-3.5,9.3-8.3,9.3c-3,0-4.7-1.3-5.7-2.8l-0.4,2.4H139V14.9h4.5L143.6,23.7L143.6,23.7z M143.5,30.5v0.2
	c0,3.2,2.3,4.9,4.5,4.9c2.5,0,4.5-2,4.5-5s-2-5-4.5-5C145.8,25.6,143.6,27.4,143.5,30.5z M166.1,47.2h-4.8l2.7-7.8l-6.3-17.7h4.9
	l3.5,11l0.4,1.6l0.4-1.6l3.5-11h5L166.1,47.2z"/>
<path class="st1" d="M21,29.2L5.4,6.6h6.1c2.5,0,4.9,1.2,6.3,3.3l15.7,22.7h-6.1C24.8,32.5,22.5,31.3,21,29.2z M46.9,6.6
	c-4.1,0-8.1,1.2-11.5,3.5l-0.1-0.2c-1.4-2.1-3.8-3.3-6.3-3.3h-6.1l15.7,22.7c1.4,2.1,3.8,3.3,6.3,3.3H51L40.2,16.9
	c1.9-1.3,4.2-2,6.7-2c6.8,0,12.3,5.5,12.3,12.3s-5.5,12.3-12.3,12.3H27.3c-2.5,0-4.9,1.2-6.3,3.3l-3.5,5h29.3
	c11.4,0,20.7-9.3,20.7-20.7S58.3,6.6,46.9,6.6z"/>
<g>
</g>
<g>
</g>
<g>
</g>
<g>
</g>
<g>
</g>
<g>
</g>
</svg>
