<?xml version="1.0" encoding="UTF-8" standalone="no"?>
<svg
   data-name="Layer 1"
   width="860.13137"
   height="551.74119"
   viewBox="0 0 860.13137 551.74119"
   version="1.1"
   id="svg138"
   sodipodi:docname="hero1.svg"
   inkscape:version="1.1.1 (3bf5ae0d25, 2021-09-20)"
   xmlns:inkscape="http://www.inkscape.org/namespaces/inkscape"
   xmlns:sodipodi="http://sodipodi.sourceforge.net/DTD/sodipodi-0.dtd"
   xmlns="http://www.w3.org/2000/svg"
   xmlns:svg="http://www.w3.org/2000/svg">
  <sodipodi:namedview
     id="namedview76"
     pagecolor="#505050"
     bordercolor="#eeeeee"
     borderopacity="1"
     inkscape:pageshadow="0"
     inkscape:pageopacity="0"
     inkscape:pagecheckerboard="0"
     showgrid="false"
     inkscape:zoom="0.89571167"
     inkscape:cx="441.54834"
     inkscape:cy="277.43303"
     inkscape:window-width="1366"
     inkscape:window-height="705"
     inkscape:window-x="-8"
     inkscape:window-y="-8"
     inkscape:window-maximized="1"
     inkscape:current-layer="svg138" />
  <defs
     id="defs142">
    <inkscape:path-effect
       effect="bspline"
       id="path-effect2898"
       is_visible="true"
       lpeversion="1"
       weight="33.333333"
       steps="2"
       helper_size="0"
       apply_no_weight="true"
       apply_with_weight="true"
       only_selected="false" />
    <inkscape:path-effect
       effect="bspline"
       id="path-effect2246"
       is_visible="true"
       lpeversion="1"
       weight="33.333333"
       steps="2"
       helper_size="0"
       apply_no_weight="true"
       apply_with_weight="true"
       only_selected="false" />
    <filter
       style="color-interpolation-filters:sRGB"
       id="filter2169"
       x="-0.039128064"
       y="-0.035617669"
       width="1.0782561"
       height="1.0712353">
      <feGaussianBlur
         stdDeviation="13.30616"
         id="feGaussianBlur2171" />
    </filter>
    <filter
       inkscape:collect="always"
       style="color-interpolation-filters:sRGB"
       id="filter4165"
       x="-0.027697366"
       y="-0.041848916"
       width="1.0553947"
       height="1.0836978">
      <feGaussianBlur
         inkscape:collect="always"
         stdDeviation="9.1782548"
         id="feGaussianBlur4167" />
    </filter>
  </defs>
  <path
     style="mix-blend-mode:normal;fill:#9c9c9c;fill-opacity:1;stroke:none;stroke-width:0.940268px;stroke-linecap:butt;stroke-linejoin:miter;stroke-opacity:1;filter:url(#filter4165)"
     d="m 801.12505,3.7998896 c 0,0 -16.74646,526.3651804 -16.74646,526.3651804 0,0 -778.557056,0 -778.557056,0 25.478057,-41.92543 50.955476,-83.8498 82.101812,-111.66309 31.146334,-27.81329 67.957724,-41.51242 110.077124,-57.69756 42.11941,-16.18515 89.54298,-34.85482 127.82139,-56.13958 38.2784,-21.28477 67.40932,-45.18295 97.52949,-79.04561 30.12016,-33.86267 61.22607,-77.68588 97.65776,-114.4873 C 557.44079,74.330514 599.19343,44.55575 646.76809,27.837538 694.34275,11.119325 747.73286,7.4596784 801.12505,3.7998896 Z"
     id="path2894"
     inkscape:path-effect="#path-effect2898"
     inkscape:original-d="M 801.12505,3.7998896 784.37859,530.16507 H 5.821534 c 0,0 50.95665,-83.84909 76.434172,-125.77628 36.814424,-13.69889 73.625814,-27.39803 110.438244,-41.09892 47.4264,-18.66939 94.84998,-37.33906 142.27357,-56.01013 29.13364,-23.89858 58.26455,-47.79676 87.39626,-71.6974 31.10887,-43.82497 62.21478,-87.64818 93.32161,-131.47509 C 557.4416,74.331649 599.19424,44.556889 640.94849,14.779256 694.34282,11.120389 801.12505,3.7998896 801.12505,3.7998896 Z"
     sodipodi:nodetypes="cccccccccc"
     transform="matrix(0.98239835,0,0,0.96645602,31.438673,20.119962)" />
  <path
     style="fill:#ffffff;fill-opacity:1;stroke:none;stroke-width:0.963919px;stroke-linecap:butt;stroke-linejoin:miter;stroke-opacity:1"
     d="m 858.38276,22.956696 c 0,0 0,527.576944 0,527.576944 0,0 -824.99236,0 -824.99236,0 25.814623,-43.4264 51.629073,-86.85251 82.46388,-116.28237 30.83481,-29.42986 66.68774,-44.86207 111.9106,-59.99136 45.22286,-15.1293 99.81256,-29.95479 141.16256,-49.40381 41.35001,-19.44901 69.4581,-43.51991 94.86793,-80.61059 25.40984,-37.09069 48.11863,-87.1972 86.72333,-125.1728 38.6047,-37.975595 93.10006,-63.815065 147.06113,-77.812205 53.96107,-13.997139 107.381,-16.150434 160.80293,-18.303809 z"
     id="path2244"
     inkscape:path-effect="#path-effect2246"
     inkscape:original-d="M 858.38276,22.956696 V 550.53364 H 33.3904 c 0,0 51.630212,-86.85183 77.44387,-130.2792 35.85532,-15.43187 71.70825,-30.86408 107.56094,-46.29756 54.59284,-14.82513 109.18254,-29.65062 163.77237,-44.47738 28.11075,-24.07138 56.21885,-48.14227 84.32768,-72.2156 22.71111,-50.10855 45.4199,-100.21507 68.1291,-150.32557 54.49959,-25.840053 108.99495,-51.679522 163.49261,-77.521508 53.42397,-2.152454 160.26579,-6.460126 160.26579,-6.460126 z"
     sodipodi:nodetypes="cccccccccc" />
  <g
     id="g1893"
     transform="translate(-43.722888,45.804931)">
    <path
       d="M 702.40352,430.00069 H 544.10831 A 21.746366,21.746366 0 0 1 522.3861,408.2788 V 158.58559 a 21.746672,21.746672 0 0 1 21.72221,-21.7222 h 158.29521 a 21.746665,21.746665 0 0 1 21.7222,21.7222 V 408.2788 a 21.746366,21.746366 0 0 1 -21.7222,21.72189 z"
       fill="#e6e6e6"
       id="path2"
       style="fill:#949494;fill-opacity:1;stroke-width:0.728302" />
    <path
       d="M 705.02861,149.82524 H 543.80975 a 6.8084136,6.8084136 0 0 0 -6.80002,6.79998 v 252.94889 a 6.8105767,6.8105767 0 0 0 6.80002,6.80002 h 161.21886 a 6.8084064,6.8084064 0 0 0 6.79997,-6.80002 V 156.62522 a 6.8083772,6.8083772 0 0 0 -6.79997,-6.79998 z"
       fill="#ffffff"
       id="path4"
       style="stroke-width:0.728302" />
    <path
       d="m 547.97749,136.86339 a 1.6637328,1.6637328 0 0 1 1.66178,-1.66178 h 11.30007 a 1.661775,1.661775 0 1 1 0,3.32355 h -11.30011 a 1.6637328,1.6637328 0 0 1 -1.66174,-1.66177 z"
       fill="#e6e6e6"
       id="path6"
       style="stroke-width:0.728302" />
    <path
       d="m 566.58935,136.86339 a 1.6637328,1.6637328 0 0 1 1.66177,-1.66178 h 11.30008 a 1.661775,1.661775 0 1 1 0,3.32355 h -11.30008 a 1.6637328,1.6637328 0 0 1 -1.66177,-1.66177 z"
       fill="#e6e6e6"
       id="path8"
       style="stroke-width:0.728302" />
    <path
       d="m 678.26071,136.86339 a 1.6637328,1.6637328 0 0 1 1.66177,-1.66178 h 11.30008 a 1.661775,1.661775 0 0 1 0,3.32355 h -11.30007 a 1.6637328,1.6637328 0 0 1 -1.66178,-1.66177 z"
       fill="#e6e6e6"
       id="path10"
       style="fill:#949494;fill-opacity:1;stroke-width:0.728302" />
    <path
       d="m 646.76006,411.16278 c 0,1.74819 -0.0332,3.48973 -0.11298,5.21135 H 543.80975 a 6.8105767,6.8105767 0 0 1 -6.80002,-6.80002 V 282.25548 a 130.57668,130.57668 0 0 1 109.75033,128.9073 z"
       fill="#f2f2f2"
       id="path12"
       style="stroke-width:0.728302" />
    <rect
       x="601.75482"
       y="214.82826"
       width="44.673061"
       height="10.263515"
       rx="3.1600873"
       fill="#6464ff"
       id="rect14"
       style="stroke-width:0.728302" />
    <rect
       x="577.37897"
       y="235.35529"
       width="93.424744"
       height="10.263515"
       rx="3.1600873"
       fill="#e6e6e6"
       id="rect16"
       style="stroke-width:0.728302" />
    <rect
       x="577.37897"
       y="255.88229"
       width="93.424744"
       height="10.263515"
       rx="3.1600873"
       fill="#e6e6e6"
       id="rect18"
       style="stroke-width:0.728302" />
    <path
       d="m 652.72821,399.08699 a 2.4382819,2.4382819 0 0 1 -1.76713,-4.22614 l 0.16708,-0.66421 q -0.033,-0.0798 -0.0664,-0.15944 a 6.5478345,6.5478345 0 0 0 -12.07823,0.0449 c -1.97546,4.75781 -4.49056,9.52376 -5.10984,14.55439 a 19.370886,19.370886 0 0 0 0.34005,6.66203 77.662231,77.662231 0 0 1 -7.06463,-32.2556 74.958709,74.958709 0 0 1 0.46496,-8.36237 q 0.38518,-3.41436 1.06875,-6.7801 a 78.561961,78.561961 0 0 1 15.57957,-33.29659 20.907624,20.907624 0 0 0 8.69544,-9.02162 15.948427,15.948427 0 0 0 1.45041,-4.35816 c -0.42331,0.0555 -0.85357,0.0902 -1.27688,0.11799 -0.13188,0.007 -0.27066,0.0138 -0.40253,0.0208 l -0.0497,0.002 a 2.4157773,2.4157773 0 0 1 -1.98404,-3.93574 q 0.27416,-0.33741 0.54867,-0.67448 c 0.27761,-0.347 0.56214,-0.68705 0.83973,-1.034 a 1.2026959,1.2026959 0 0 0 0.0902,-0.10415 c 0.31928,-0.39557 0.63844,-0.78418 0.95771,-1.17975 a 6.9855804,6.9855804 0 0 0 -2.29011,-2.2137 c -3.1992,-1.87371 -7.61285,-0.57601 -9.92379,2.31784 -2.31784,2.8938 -2.75501,6.95359 -1.95006,10.56912 a 27.994883,27.994883 0 0 0 3.87238,8.63293 c -0.17353,0.22213 -0.35396,0.43723 -0.52744,0.65933 a 79.069733,79.069733 0 0 0 -8.25285,13.07447 32.869881,32.869881 0 0 0 -1.96237,-15.26739 c -1.87833,-4.53127 -5.39899,-8.34752 -8.49934,-12.2648 -3.72402,-4.70525 -11.36049,-2.65175 -12.01659,3.31287 q -0.01,0.0866 -0.0186,0.1732 0.69077,0.38969 1.35234,0.82722 a 3.3073572,3.3073572 0 0 1 -1.33345,6.01877 l -0.0674,0.0104 a 32.907753,32.907753 0 0 0 0.8674,4.92026 33.882563,33.882563 0 0 0 16.87039,21.23545 c 0.27066,0.13877 0.53441,0.27755 0.80506,0.40943 a 80.706569,80.706569 0 0 0 -4.34426,20.4443 76.547762,76.547762 0 0 0 0.0555,12.35964 l -0.0208,-0.14575 a 20.227048,20.227048 0 0 0 -6.90503,-11.67949 c -5.31378,-4.36509 -12.82115,-5.97249 -18.55378,-9.48116 a 3.7960405,3.7960405 0 0 0 -5.81403,3.69295 q 0.0115,0.0766 0.0234,0.15321 a 22.219391,22.219391 0 0 1 2.49132,1.20052 q 0.69076,0.38978 1.35234,0.82723 a 3.3073936,3.3073936 0 0 1 -1.33346,6.01882 l -0.0675,0.0104 c -0.0486,0.007 -0.0902,0.0139 -0.13873,0.0209 a 32.936404,32.936404 0 0 0 6.0583,9.48651 33.912649,33.912649 0 0 0 24.59426,10.79125 h 0.007 a 80.683468,80.683468 0 0 0 5.41992,15.82248 h 19.36168 c 0.0694,-0.21513 0.13187,-0.43722 0.19436,-0.65236 a 21.998555,21.998555 0 0 1 -5.35749,-0.31916 c 1.43654,-1.76272 2.87302,-3.53931 4.30956,-5.30197 a 1.2034315,1.2034315 0 0 0 0.0902,-0.10408 c 0.72865,-0.90214 1.46427,-1.79737 2.19292,-2.6995 l 3.9e-4,-0.001 a 32.222821,32.222821 0 0 0 -0.94418,-8.20858 z m -22.1717,-43.61556 0.0102,-0.0138 -0.0102,0.0276 z m -4.28868,38.66098 -0.16657,-0.37469 c 0.007,-0.27065 0.007,-0.54131 0,-0.81887 0,-0.0764 -0.0138,-0.1527 -0.0138,-0.22906 0.0624,0.47883 0.11795,0.95772 0.18734,1.43654 z"
       fill="#ccc"
       id="path20"
       style="fill:#c8ab37;fill-opacity:1;stroke-width:0.728302" />
    <path
       d="M 696.96998,172.15714 H 551.86834 a 1.2011519,1.2011519 0 0 1 0,-2.40173 h 145.10164 a 1.2011519,1.2011519 0 0 1 0,2.40173 z"
       fill="#cacaca"
       id="path22"
       style="stroke-width:0.728302" />
    <ellipse
       cx="559.60999"
       cy="162.67474"
       rx="3.5294967"
       ry="3.6081603"
       fill="#3f3d56"
       id="ellipse24"
       style="stroke-width:0.728302" />
    <ellipse
       cx="571.8028"
       cy="162.67474"
       rx="3.5294967"
       ry="3.6081603"
       fill="#3f3d56"
       id="ellipse26"
       style="stroke-width:0.728302" />
    <ellipse
       cx="583.99561"
       cy="162.67474"
       rx="3.5294967"
       ry="3.6081603"
       fill="#3f3d56"
       id="ellipse28"
       style="stroke-width:0.728302" />
    <path
       d="m 691.29838,160.46061 h -7.89852 a 0.59817619,0.59817619 0 0 0 0,1.19612 h 7.89852 a 0.59817619,0.59817619 0 0 0 0,-1.19612 z"
       fill="#3f3d56"
       id="path30"
       style="stroke-width:0.728302" />
    <path
       d="m 691.29838,162.70554 h -7.89852 a 0.59817619,0.59817619 0 0 0 0,1.19612 h 7.89852 a 0.59817619,0.59817619 0 0 0 0,-1.19612 z"
       fill="#3f3d56"
       id="path32"
       style="stroke-width:0.728302" />
    <path
       d="m 691.29838,164.94752 h -7.89852 a 0.59817619,0.59817619 0 0 0 0,1.19612 h 7.89852 a 0.59817619,0.59817619 0 0 0 0,-1.19612 z"
       fill="#3f3d56"
       id="path34"
       style="stroke-width:0.728302" />
    <path
       d="m 455.87188,282.35048 h -84.12615 a 4.4885901,4.4885901 0 0 0 -4.4818,4.49337 V 419.7384 h 93.10132 V 286.84385 a 4.491008,4.491008 0 0 0 -4.49337,-4.49337 z m -41.78005,75.50906 a 9.9805252,9.9805252 0 0 1 -9.93392,-9.93385 v -15.32824 a 9.933892,9.933892 0 0 1 19.86777,0 v 15.32824 a 9.9803795,9.9803795 0 0 1 -9.93385,9.93385 z"
       fill="#e6e6e6"
       id="path36"
       style="stroke-width:0.728302" />
    <path
       d="m 366.97515,415.48763 v 12.82165 a 2.5117166,2.5117166 0 0 0 2.50662,2.50656 h 88.66566 a 2.5191962,2.5191962 0 0 0 2.50655,-2.50656 V 415.4876 Z"
       fill="#cccccc"
       id="path38"
       style="stroke-width:0.728302" />
    <path
       d="M 595.17724,74.953523 H 235.57072 A 11.673601,11.673601 0 0 0 223.9157,86.608472 V 329.27247 a 11.666165,11.666165 0 0 0 11.65502,11.65495 h 359.60652 a 11.666158,11.666158 0 0 0 11.65501,-11.65495 V 86.608472 A 11.673594,11.673594 0 0 0 595.17724,74.953523 Z"
       fill="#e6e6e6"
       id="path40"
       style="fill:#949494;fill-opacity:1;stroke-width:0.728302" />
    <path
       d="M 592.17555,83.371724 H 238.57519 a 6.2466453,6.2466453 0 0 0 -6.23307,6.246034 V 326.26707 a 6.2438194,6.2438194 0 0 0 6.23307,6.23307 h 353.60036 a 6.2438194,6.2438194 0 0 0 6.23307,-6.23307 V 89.617758 a 6.2466453,6.2466453 0 0 0 -6.23307,-6.246034 z"
       fill="#ffffff"
       id="path42"
       style="stroke-width:0.728302" />
    <path
       d="M 598.40862,89.617758 V 326.26707 a 6.2438194,6.2438194 0 0 1 -6.23307,6.23307 H 467.48819 a 153.01025,153.01025 0 0 1 -33.3812,-44.91438 q -0.81648,-1.63285 -1.55504,-3.30442 a 151.65191,151.65191 0 0 1 -13.47694,-51.87318 c -0.0907,-1.10144 -0.16847,-2.20297 -0.22028,-3.31742 -0.16846,-2.8509 -0.24621,-5.74063 -0.24621,-8.64334 a 152.30859,152.30859 0 0 1 10.74262,-56.38273 c 0.42766,-1.11442 0.88118,-2.21594 1.34774,-3.31742 a 153.42808,153.42808 0 0 1 73.02149,-77.375526 h 88.45517 a 6.2466453,6.2466453 0 0 1 6.23308,6.246034 z"
       fill="#6464ff"
       id="path44"
       style="stroke-width:0.728302" />
    <path
       d="M 574.40067,115.97671 H 243.53822 a 1.3160415,1.3160415 0 0 1 0,-2.63148 h 330.86245 a 1.3160415,1.3160415 0 0 1 0,2.63148 z"
       fill="#cacaca"
       id="path46"
       style="stroke-width:0.728302" />
    <ellipse
       cx="255.0813"
       cy="98.744553"
       rx="4.5643482"
       ry="4.6660633"
       fill="#3f3d56"
       id="ellipse48"
       style="stroke-width:0.431107" />
    <ellipse
       cx="270.84906"
       cy="98.744553"
       rx="4.5643482"
       ry="4.6660633"
       fill="#3f3d56"
       id="ellipse50"
       style="stroke-width:0.431107" />
    <ellipse
       cx="286.61679"
       cy="98.744553"
       rx="4.5643482"
       ry="4.6660633"
       fill="#3f3d56"
       id="ellipse52"
       style="stroke-width:0.431107" />
    <path
       d="m 558.36253,92.815629 h -18.92201 a 1.4330141,1.4330141 0 0 0 0,2.865468 h 18.92201 a 1.4330141,1.4330141 0 0 0 0,-2.865468 z"
       fill="#3f3d56"
       id="path54"
       style="fill:#ffffff;fill-opacity:1;stroke-width:0.728302" />
    <path
       d="m 558.36253,98.19368 h -18.92201 a 1.4330141,1.4330141 0 0 0 0,2.86547 h 18.92201 a 1.4330141,1.4330141 0 0 0 0,-2.86547 z"
       fill="#3f3d56"
       id="path56"
       style="fill:#ffffff;fill-opacity:1;stroke-width:0.728302" />
    <path
       d="m 558.36253,103.56467 h -18.92201 a 1.4330141,1.4330141 0 0 0 0,2.86546 h 18.92201 a 1.4330141,1.4330141 0 0 0 0,-2.86546 z"
       fill="#3f3d56"
       id="path58"
       style="fill:#ffffff;fill-opacity:1;stroke-width:0.728302" />
    <rect
       x="295.41592"
       y="192.84415"
       width="52.588348"
       height="11.245396"
       rx="3.1600873"
       fill="#6464ff"
       id="rect60"
       style="stroke-width:0.728302" />
    <rect
       x="268.70807"
       y="215.33495"
       width="106.004"
       height="11.245396"
       rx="3.1600873"
       fill="#e6e6e6"
       id="rect62"
       style="stroke-width:0.728302" />
    <rect
       x="268.70807"
       y="237.82574"
       width="106.004"
       height="11.245396"
       rx="3.1600873"
       fill="#e6e6e6"
       id="rect64"
       style="stroke-width:0.728302" />
    <path
       d="m 277.36018,318.93256 a 38.636167,38.636167 0 0 1 -2.43622,13.56758 h -36.34877 a 6.2438194,6.2438194 0 0 1 -6.23307,-6.23306 V 280.5493 a 38.39349,38.39349 0 0 1 6.14235,-0.49243 38.873266,38.873266 0 0 1 38.87571,38.87569 z"
       fill="#6464ff"
       id="path66"
       style="stroke-width:0.728302" />
    <path
       d="m 598.73258,164.06473 v -3.31741 h -55.60517 v -38.44801 h -3.30449 v 38.44804 H 476.0927 v -38.44804 h -3.30442 v 38.44804 h -42.0894 c -0.46656,1.10144 -0.92008,2.20296 -1.34774,3.31741 h 43.43714 v 65.02608 h -53.93355 c 0.0518,1.11442 0.12956,2.21594 0.22028,3.31741 h 53.71327 v 51.87318 h -40.23633 q 0.73864,1.67163 1.55504,3.30442 h 38.68129 v 43.60547 h 3.30442 V 287.5858 h 63.73022 v 43.60552 h 3.30449 V 287.5858 h 55.60517 v -3.30443 h -55.60517 v -5e-5 a 51.873127,51.873127 0 0 1 51.87313,-51.87312 h 3.73204 v -3.31742 H 543.12741 V 164.06473 Z M 539.82292,284.28137 H 476.0927 V 232.4082 h 63.73022 z m 0,-55.19056 H 476.0927 v -1.29592 a 63.730158,63.730158 0 0 1 63.73015,-63.73016 h 7e-5 z"
       opacity="0.2"
       id="path68"
       style="stroke-width:0.728302" />
    <path
       d="m 553.96189,307.94866 a 3.4628861,3.4628861 0 0 1 -2.50969,-6.00204 c 0.0873,-0.34706 0.14996,-0.59628 0.23727,-0.94334 q -0.0469,-0.1133 -0.0943,-0.22644 c -3.18807,-7.60192 -13.99278,-7.54949 -17.1537,0.0638 -2.80558,6.75713 -6.37757,13.52582 -7.25708,20.67035 a 27.510875,27.510875 0 0 0 0.48292,9.46152 110.29728,110.29728 0 0 1 -10.03332,-45.80999 106.45905,106.45905 0 0 1 0.66034,-11.87634 q 0.54705,-4.84914 1.51787,-9.62924 a 111.57528,111.57528 0 0 1 22.12637,-47.2884 29.693348,29.693348 0 0 0 12.3494,-12.81264 22.649868,22.649868 0 0 0 2.05989,-6.18948 c -0.60118,0.0789 -1.21225,0.12813 -1.81347,0.1675 -0.18729,0.01 -0.38439,0.0197 -0.57172,0.0296 l -0.0706,0.003 a 3.4309282,3.4309282 0 0 1 -2.81777,-5.58956 q 0.38937,-0.47923 0.77923,-0.9579 c 0.39427,-0.49283 0.79835,-0.97577 1.19255,-1.46852 a 1.7089531,1.7089531 0 0 0 0.12813,-0.1479 c 0.45345,-0.5618 0.90674,-1.1137 1.36017,-1.6755 a 9.9210448,9.9210448 0 0 0 -3.25246,-3.14394 c -4.54356,-2.66108 -10.8119,-0.81806 -14.09394,3.29184 -3.29184,4.10981 -3.91272,9.87561 -2.76951,15.01047 0.97584,4.39574 3.10462,8.42679 5.49963,12.26065 -0.24645,0.31542 -0.50271,0.62096 -0.74909,0.93638 a 112.29575,112.29575 0 0 0 -11.72084,18.56862 46.682519,46.682519 0 0 0 -2.78699,-21.68306 c -2.66764,-6.43538 -7.66773,-11.8553 -12.07087,-17.41869 -5.28893,-6.68246 -16.13438,-3.76604 -17.06617,4.705 q -0.0135,0.12303 -0.0264,0.24598 0.98103,0.55345 1.92061,1.17484 a 4.6971612,4.6971612 0 0 1 -1.8938,8.54796 l -0.0958,0.0148 a 46.737899,46.737899 0 0 0 1.23195,6.98785 48.120661,48.120661 0 0 0 23.95959,30.15898 c 0.38439,0.1971 0.75897,0.3942 1.14336,0.58149 a 114.62054,114.62054 0 0 0 -6.16979,29.03536 108.71381,108.71381 0 0 0 0.0788,17.55331 l -0.0296,-0.20699 a 28.726841,28.726841 0 0 0 -9.80665,-16.58742 c -7.54671,-6.19938 -18.20882,-8.48223 -26.3504,-13.46531 -3.91913,-2.39873 -8.9412,0.70108 -8.25721,5.2448 q 0.0164,0.10879 0.0333,0.21758 a 31.556163,31.556163 0 0 1 3.53822,1.70501 q 0.98102,0.55356 1.92061,1.17484 a 4.6972194,4.6972194 0 0 1 -1.8938,8.54804 l -0.0959,0.0147 c -0.069,0.01 -0.12813,0.0198 -0.19702,0.0297 a 46.776915,46.776915 0 0 0 8.60411,13.47291 48.163332,48.163332 0 0 0 34.92921,15.32589 h 0.01 a 114.58776,114.58776 0 0 0 7.69747,22.47138 h 27.49777 c 0.0986,-0.30554 0.18729,-0.62096 0.27603,-0.9265 a 31.242061,31.242061 0 0 1 -7.60882,-0.45328 c 2.0402,-2.50344 4.08032,-5.02658 6.12052,-7.52995 a 1.7072052,1.7072052 0 0 0 0.12813,-0.14784 c 1.03485,-1.28123 2.07959,-2.55264 3.11444,-3.83387 l 5.5e-4,-0.002 a 45.763351,45.763351 0 0 0 -1.34094,-11.65793 z m -31.48866,-61.94359 0.0145,-0.0195 -0.0145,0.0392 z m -6.09086,54.90702 -0.23657,-0.53214 c 0.01,-0.38439 0.01,-0.76878 0,-1.16298 0,-0.10851 -0.0197,-0.21687 -0.0197,-0.32531 0.0887,0.68004 0.16751,1.36016 0.26607,2.0402 z"
       fill="#2f2e41"
       id="path70"
       style="stroke-width:0.728302" />
    <path
       d="m 309.10314,243.63685 v 0 -36.95651 A 21.389382,21.389382 0 0 0 287.71376,185.29097 H 209.4164 A 21.389396,21.389396 0 0 0 188.027,206.68036 V 409.4265 a 21.389374,21.389374 0 0 0 21.38938,21.38937 h 78.2974 a 21.389338,21.389338 0 0 0 21.38934,-21.38934 v -139.48343 0 a 1.3490336,1.3490336 0 0 0 1.34903,-1.34904 v -23.60817 a 1.3490336,1.3490336 0 0 0 -1.34901,-1.34904 z"
       fill="#e6e6e6"
       id="path72"
       style="fill:#949494;fill-opacity:1;stroke-width:0.728302" />
    <path
       d="m 304.55103,206.82715 v 202.45336 a 15.963307,15.963307 0 0 1 -15.79687,15.96438 1.4026512,1.4026512 0 0 1 -0.17483,0.007 H 209.90087 A 15.973161,15.973161 0 0 1 193.92921,409.28051 V 206.82715 a 15.973117,15.973117 0 0 1 15.97166,-15.97166 h 9.54804 a 7.594346,7.594346 0 0 0 7.02811,10.45842 h 44.85612 a 7.5998739,7.5998739 0 0 0 7.02083,-10.45842 h 10.22536 a 15.973117,15.973117 0 0 1 15.9717,15.97166 z"
       fill="#ffffff"
       id="path74"
       style="stroke-width:0.728302" />
    <path
       d="m 288.95077,419.00331 q 0,3.14627 -0.19661,6.24155 a 1.4026512,1.4026512 0 0 1 -0.17483,0.007 H 209.90087 A 15.973161,15.973161 0 0 1 193.92921,409.2802 v -90.22204 a 100.0602,100.0602 0 0 1 95.02156,99.94487 z"
       fill="#f2f2f2"
       id="path76"
       style="stroke-width:0.728302" />
    <path
       d="m 188.45969,264.31172 a 1.8229032,1.8229032 0 0 1 -1.82076,-1.82075 v -12.38114 a 1.820755,1.820755 0 0 1 3.64151,0 v 12.38114 a 1.8228959,1.8228959 0 0 1 -1.82075,1.82075 z"
       fill="#e6e6e6"
       id="path78"
       style="fill:#949494;fill-opacity:1;stroke-width:0.728302" />
    <rect
       x="236.41956"
       y="254.42583"
       width="25.641178"
       height="11.245396"
       rx="3.1600873"
       fill="#6464ff"
       id="rect80"
       style="stroke-width:0.728302" />
    <rect
       x="209.71173"
       y="276.91663"
       width="79.056824"
       height="11.245396"
       rx="3.1600873"
       fill="#e6e6e6"
       id="rect82"
       style="stroke-width:0.728302" />
    <rect
       x="209.71173"
       y="299.40744"
       width="79.056824"
       height="11.245396"
       rx="3.1600873"
       fill="#e6e6e6"
       id="rect84"
       style="stroke-width:0.728302" />
    <path
       d="m 268.10701,413.73094 a 1.6250163,1.6250163 0 0 1 -1.17772,-2.81655 l 0.11135,-0.44268 q -0.022,-0.0532 -0.0442,-0.10626 a 4.3638756,4.3638756 0 0 0 -8.04967,0.0299 c -1.31657,3.17089 -2.99279,6.34721 -3.40551,9.6999 a 12.909879,12.909879 0 0 0 0.22663,4.43999 51.758776,51.758776 0 0 1 -4.70831,-21.49711 49.957992,49.957992 0 0 1 0.30988,-5.57317 q 0.25671,-2.27553 0.71228,-4.51867 a 52.358526,52.358526 0 0 1 10.38317,-22.19087 13.934134,13.934134 0 0 0 5.79516,-6.01254 10.629275,10.629275 0 0 0 0.96664,-2.90453 c -0.28211,0.037 -0.56888,0.0601 -0.85099,0.0786 -0.0879,0.005 -0.18038,0.009 -0.26827,0.0139 l -0.0332,10e-4 a 1.6100206,1.6100206 0 0 1 -1.32227,-2.623 q 0.18271,-0.22485 0.36566,-0.4495 c 0.18502,-0.23127 0.37464,-0.4579 0.55962,-0.68913 a 0.80180939,0.80180939 0 0 0 0.0601,-0.0694 c 0.21279,-0.26365 0.4255,-0.52263 0.63828,-0.78626 a 4.6556042,4.6556042 0 0 0 -1.52627,-1.47535 c -2.13214,-1.24875 -5.07366,-0.38388 -6.61382,1.54473 -1.54472,1.9286 -1.8361,4.6343 -1.29964,7.04391 a 18.657638,18.657638 0 0 0 2.5808,5.75352 c -0.11565,0.14801 -0.2359,0.2914 -0.35152,0.43942 a 52.696283,52.696283 0 0 0 -5.5002,8.71363 21.906534,21.906534 0 0 0 -1.30784,-10.17511 c -1.25184,-3.01991 -3.59822,-5.56329 -5.66447,-8.17401 a 4.4963975,4.4963975 0 0 0 -8.00859,2.2079 q -0.006,0.0577 -0.0124,0.11543 0.46036,0.25972 0.90129,0.55132 a 2.2042202,2.2042202 0 0 1 -0.8887,4.01127 l -0.045,0.007 a 21.932607,21.932607 0 0 0 0.57811,3.27917 22.581437,22.581437 0 0 0 11.24344,14.15259 c 0.18038,0.0925 0.35614,0.18499 0.53654,0.27287 a 53.787614,53.787614 0 0 0 -2.89528,13.62533 51.016506,51.016506 0 0 0 0.037,8.23718 l -0.0139,-0.0971 a 13.480518,13.480518 0 0 0 -4.60192,-7.78392 c -3.54142,-2.90916 -8.5448,-3.98043 -12.36537,-6.31882 a 2.5299095,2.5299095 0 0 0 -3.87483,2.4612 l 0.0156,0.1021 a 14.808883,14.808883 0 0 1 1.66036,0.80011 q 0.46036,0.25977 0.90128,0.55132 a 2.2042421,2.2042421 0 0 1 -0.8887,4.01131 l -0.045,0.007 c -0.0324,0.005 -0.0601,0.009 -0.0925,0.0139 a 21.950873,21.950873 0 0 0 4.03762,6.32239 22.601451,22.601451 0 0 0 16.39111,7.19193 h 0.005 a 53.771438,53.771438 0 0 0 3.61217,10.54508 h 12.9038 c 0.0463,-0.14337 0.0879,-0.29139 0.12953,-0.43479 a 14.661045,14.661045 0 0 1 -3.57056,-0.21272 c 0.9574,-1.17475 1.91476,-2.35881 2.87216,-3.53355 a 0.80151079,0.80151079 0 0 0 0.0601,-0.0694 c 0.48561,-0.60124 0.97588,-1.19787 1.46149,-1.7991 l 2.7e-4,-7.3e-4 a 21.475248,21.475248 0 0 0 -0.62926,-5.47069 z m -14.77658,-29.06806 0.007,-0.009 -0.007,0.0184 z m -2.85824,25.76603 -0.11101,-0.24971 c 0.005,-0.18039 0.005,-0.36077 0,-0.54575 0,-0.0509 -0.009,-0.10178 -0.009,-0.15266 0.0416,0.31912 0.0786,0.63828 0.12485,0.9574 z"
       fill="#ccc"
       id="path86"
       style="fill:#c8ab37;fill-opacity:1;stroke-width:0.728302" />
    <path
       d="m 188.09554,240.27776 a 1.8229032,1.8229032 0 0 1 -1.82076,-1.82076 v -12.38113 a 1.820755,1.820755 0 0 1 3.64151,0 V 238.457 a 1.8228959,1.8228959 0 0 1 -1.82075,1.82076 z"
       fill="#e6e6e6"
       id="path88"
       style="fill:#949494;fill-opacity:1;stroke-width:0.728302" />
    <path
       d="m 236.52761,192.93814 a 1.8229032,1.8229032 0 0 1 1.82076,-1.82076 h 12.38113 a 1.820755,1.820755 0 0 1 0,3.64151 h -12.38113 a 1.8229032,1.8229032 0 0 1 -1.82076,-1.82075 z"
       fill="#ffffff"
       id="path90"
       style="stroke-width:0.728302" />
    <path
       d="m 188.45969,285.43248 a 1.8229032,1.8229032 0 0 1 -1.82076,-1.82076 v -12.38113 a 1.820755,1.820755 0 0 1 3.64151,0 v 12.38113 a 1.8228959,1.8228959 0 0 1 -1.82075,1.82076 z"
       fill="#e6e6e6"
       id="path92"
       style="fill:#949494;fill-opacity:1;stroke-width:0.728302" />
    <circle
       cx="257.64838"
       cy="192.93813"
       r="1.8207548"
       fill="#ffffff"
       id="circle94"
       style="stroke-width:0.728302" />
    <path
       d="m 742.41662,430.81104 -624.70094,0.22384 a 0.86718177,0.86718177 0 0 1 0,-1.73436 l 624.70094,-0.22383 a 0.867175,0.867175 0 0 1 0,1.73435 z"
       fill="#cacaca"
       id="path96"
       style="stroke-width:0.728302" />
    <path
       d="m 383.97028,239.62713 -3.28594,0.70414 a 18.917321,18.917321 0 0 0 -0.51084,-4.07983 12.251043,12.251043 0 0 1 -1.8501,4.58375 l -18.8458,4.0246 -18.09333,-19.09435 c -0.0277,-9.54713 5.27403,-16.80243 14.77979,-16.80243 0.57298,0 1.16664,0.0276 1.76722,0.0828 a 20.104213,20.104213 0 0 1 23.01538,15.80149 c 6.73751,6.63399 4.29379,10.53429 3.02362,14.77979 z"
       fill="#2f2e41"
       id="path98"
       style="stroke-width:0.728302" />
    <polygon
       points="393.347,496.506 379.493,496.507 379.495,532.711 388.881,532.711 "
       fill="#ffb6b6"
       id="polygon100"
       transform="matrix(0.72830188,0,0,0.72830188,116.8485,74.953523)" />
    <path
       d="m 391.54014,459.55562 10.8063,-0.64499 v 4.62989 l 10.27385,7.09548 a 2.8920067,2.8920067 0 0 1 -1.64334,5.27186 h -12.8653 l -2.21752,-4.57967 -0.86584,4.57967 h -4.85073 z"
       fill="#2f2e41"
       id="path102"
       style="stroke-width:0.728302" />
    <polygon
       points="299.445,497.841 287.396,491.005 269.531,522.494 277.695,527.126 "
       fill="#ffb6b6"
       id="polygon104"
       transform="matrix(0.72830188,0,0,0.72830188,116.8485,74.953523)" />
    <path
       d="m 313.33807,451.71732 9.71707,4.77183 -2.28482,4.02684 5.43409,11.24138 a 2.8919994,2.8919994 0 0 1 -4.03091,3.77421 l -11.18958,-6.34894 0.33134,-5.0775 -3.0131,3.55588 -4.21892,-2.3938 z"
       fill="#2f2e41"
       id="path106"
       style="stroke-width:0.728302" />
    <path
       d="m 418.50368,244.2466 a 6.0541769,6.0541769 0 0 0 -4.87968,7.89738 l -10.4606,9.05413 3.95177,7.69888 14.59286,-12.99364 a 6.0869796,6.0869796 0 0 0 -3.20426,-11.65674 z"
       fill="#ffb6b6"
       id="path108"
       style="stroke-width:0.728302" />
    <path
       d="m 407.96966,275.38164 c -3.48938,5.28481 -11.3098,10.38872 -22.91633,14.9135 a 4.9809003,4.9809003 0 0 1 -4.00438,-0.13085 c -4.38001,-1.99341 -7.18716,-9.40378 -7.45067,-10.12259 l -8.48317,-11.44351 c -0.15059,-0.16671 -4.11749,-4.66886 -3.66377,-9.09491 a 6.4649028,6.4649028 0 0 1 2.78415,-4.6334 c 6.42166,-4.7605 20.81381,11.773 22.68139,13.97123 l 9.39278,-5.72289 6.84406,-3.05347 5.5249,-6.72285 7.77921,7.95343 -6.99644,11.13067 a 13.413646,13.413646 0 0 1 -1.49173,2.95564 z"
       fill="#2f2e41"
       id="path110"
       style="stroke-width:0.728302" />
    <path
       d="m 383.57291,295.65767 c 0,0 20.09998,32.01661 16.45848,35.65812 -3.64151,3.64151 -9.30818,4.59777 -9.30818,4.59777 l -12.54088,-16.2506 z"
       fill="#2f2e41"
       id="path112"
       style="stroke-width:0.728302" />
    <path
       d="m 365.8012,251.93088 9.47324,6.40837 a 24.435985,24.435985 0 0 1 9.52032,27.87669 l -2.66698,8.10634 z"
       fill="#2f2e41"
       id="path114"
       style="stroke-width:0.728302" />
    <polygon
       points="311.153,442.098 281.507,497.348 295.656,507.454 336.083,454.899 352.073,402.716 377.184,518.235 396.05,516.887 382.947,356.722 358.084,311.639 318.826,363 317.087,369.057 "
       fill="#2f2e41"
       id="polygon116"
       transform="matrix(0.72830188,0,0,0.72830188,116.8485,74.953523)" />
    <path
       d="m 364.19012,253.54232 13.18484,10.77533 a 17.956166,17.956166 0 0 1 5.96068,9.17906 v 0 a 17.955977,17.955977 0 0 1 0.63018,5.02601 l -0.39288,23.39831 12.08866,32.30793 c 0,0 -32.77359,12.38113 -37.1434,1.4566 -4.36981,-10.92453 5.67192,-82.14324 5.67192,-82.14324 z"
       fill="#6464ff"
       id="path118"
       style="stroke-width:0.728302" />
    <path
       d="m 368.13361,341.35644 c -16.37229,0 -20.36239,0.1232 -20.6209,0.0709 l -0.25897,-0.0523 v -9.84731 l 3.98142,-17.69113 c -0.46525,-5.49237 -1.55533,-12.73462 -1.4566,-18.93585 0.35686,-22.41366 -0.74496,-44.30789 -0.74496,-44.30789 l 8.66542,-7.99865 3.93661,2.56178 7.30225,7.30195 c 8.48793,20.8888 15.2232,40.55441 15.2656,41.81794 l 0.53359,21.74564 -2.18491,8.73962 c -9.88405,6.97722 -0.85296,16.59536 -14.41855,16.59536 z"
       fill="#2f2e41"
       id="path120"
       style="stroke-width:0.728302" />
    <polygon
       points="339.614,292.662 323.846,267.973 321.113,285.031 "
       opacity="0.2"
       id="polygon122"
       transform="matrix(0.72830188,0,0,0.72830188,116.8485,74.953523)" />
    <circle
       cx="366.28"
       cy="227.0714"
       r="13.192221"
       fill="#ffb6b6"
       id="circle124"
       style="stroke-width:0.728302" />
    <path
       d="m 344.1752,294.0072 v 0 a 24.23241,24.23241 0 0 0 29.08805,5.87945 l 2.87124,-1.42098 z"
       opacity="0.2"
       id="path126"
       style="stroke-width:0.728302" />
    <path
       d="m 390.08096,290.9704 a 6.0541332,6.0541332 0 0 0 -9.27911,0.28022 l -13.31991,-3.73934 -4.24662,7.54022 18.88443,5.01649 a 6.0869796,6.0869796 0 0 0 7.96119,-9.09759 z"
       fill="#ffb6b6"
       id="path128"
       style="stroke-width:0.728302" />
    <path
       d="m 358.29516,299.33816 c -6.33283,6.3e-4 -14.90147,-3.71244 -25.07333,-10.90404 a 4.9808566,4.9808566 0 0 1 -2.09751,-3.41355 c -0.75031,-4.75341 3.88631,-11.17957 4.3409,-11.79558 l 4.87414,-13.38513 c 0.0561,-0.21753 1.62687,-6.00876 5.57024,-8.06927 a 6.464961,6.464961 0 0 1 5.40063,-0.23014 c 7.51127,2.73515 1.6461,23.85598 0.84094,26.62581 l 9.95166,4.68406 6.3196,4.02832 8.65454,0.90542 -2.34976,10.87441 -13.1436,0.29569 a 13.413915,13.413915 0 0 1 -3.28845,0.384 z"
       fill="#2f2e41"
       id="path130"
       style="stroke-width:0.728302" />
    <path
       d="m 382.09946,218.3928 c -1.05622,1.37374 -4.69419,2.5887 -9.01565,3.56895 0.007,-0.0897 0.007,-0.17944 0.007,-0.26919 a 18.917255,18.917255 0 0 0 -0.51083,-4.07983 12.251094,12.251094 0 0 1 -1.85011,4.58375 c -0.069,0.10357 -0.13802,0.20709 -0.21399,0.31066 -3.70706,0.73173 -7.62806,1.29783 -10.7,1.67747 2.11238,7.60738 10.20989,13.84787 9.33318,18.47304 l -23.72638,4.84604 a 18.60016,18.60016 0 0 0 -0.4556,-5.72967 12.332867,12.332867 0 0 1 -3.43783,6.52356 l -2.01573,0.41418 -0.60058,-2.96147 c -5.20502,-12.50174 2.05024,-25.3003 13.93762,-31.92052 a 14.449597,14.449597 0 0 1 9.15368,-6.14388 l 2.96147,-0.6075 a 14.518166,14.518166 0 0 1 17.13384,11.31441 z"
       fill="#2f2e41"
       id="path132"
       style="stroke-width:0.728302" />
    <path
       d="m 438.77765,457.55708 0.35085,-7.88884 a 25.478403,25.478403 0 0 1 11.88402,-3.0083 c -5.7077,4.66645 -4.99441,13.66179 -8.86407,19.93708 a 15.325394,15.325394 0 0 1 -11.23826,7.08206 l -4.7764,2.92444 a 25.680456,25.680456 0 0 1 5.41279,-20.80986 24.806057,24.806057 0 0 1 4.55886,-4.23593 c 1.14395,3.01639 2.67221,5.99935 2.67221,5.99935 z"
       fill="#f2f2f2"
       id="path134"
       style="fill:#c8ab37;stroke-width:0.728302" />
    <path
       d="M 450.35737,476.78768 H 284.02633 a 0.86718177,0.86718177 0 0 1 0,-1.73436 h 166.33104 a 0.86718177,0.86718177 0 1 1 0,1.73436 z"
       fill="#cacaca"
       id="path136"
       style="stroke-width:0.728302" />
  </g>
</svg>
